<?xml version="1.0" standalone="no"?>
<!DOCTYPE svg PUBLIC "-//W3C//DTD SVG 20010904//EN" "http://www.w3.org/TR/2001/REC-SVG-20010904/DTD/svg10.dtd">
<!-- Created using Krita: http://krita.org -->
<svg xmlns="http://www.w3.org/2000/svg" 
    xmlns:xlink="http://www.w3.org/1999/xlink"
    xmlns:krita="http://krita.org/namespaces/svg/krita"
    xmlns:sodipodi="http://sodipodi.sourceforge.net/DTD/sodipodi-0.dtd"
    width="401.76pt"
    height="315.36pt"
    viewBox="0 0 401.76 315.36">
<defs/>
<g id="group0" transform="translate(6.84001271645567, 5.18401623377315)" fill="none">
  <path id="XMLID_2_" transform="matrix(0.72 0 0 0.72 0 297.504)" fill="#36303e" d="M543.7 22.6L11.3 22.6C5 22.6 0 17.5 0 11.3L0 11.3C0 5 5.1 0 11.3 0L543.7 0C550 0 555 5.1 555 11.3L555 11.3C555.1 17.5 550 22.6 543.7 22.6Z"/>
  <rect id="XMLID_53_" transform="matrix(0.72 0 0 0.72 237.24 259.344)" fill="#403a46" width="85.2" height="33.2"/>
  <rect id="XMLID_1_" transform="matrix(0.72 0 0 0.72 237.24 261.576)" opacity="0.75" fill="#37333d" width="85.2" height="17"/>
  <rect id="XMLID_58_" transform="matrix(0.72 0 0 0.72 237.24 259.344)" fill="none" stroke="#36303e" stroke-width="4" stroke-linecap="round" stroke-linejoin="round" width="85.2" height="33.2"/>
  <path id="XMLID_28_" transform="matrix(0.72 0 0 0.72 209.88 33.048)" fill="#403a46" d="M206 32L0 32L0 32C0 14.3 14.3 0 32 0L174 0C191.7 0 206 14.3 206 32Z"/>
  <path id="XMLID_141_" transform="matrix(0.72 0 0 0.72 220.807293089472 33.048)" opacity="0.13" fill="#ededed" d="M7.0232 16L168.623 16C176.123 16 178.423 5.6 171.523 2.6C167.623 0.9 163.323 0 158.823 0L16.8232 0C12.3232 0 8.0232 0.9 4.1232 2.6C-2.7768 5.6 -0.476796 16 7.0232 16Z"/>
  <path id="XMLID_55_" transform="matrix(0.72 0 0 0.72 209.88 33.048)" fill="none" stroke="#36303e" stroke-width="4" stroke-linecap="round" stroke-linejoin="round" d="M206 32L0 32L0 32C0 14.3 14.3 0 32 0L174 0C191.7 0 206 14.3 206 32Z"/>
  <rect id="XMLID_3_" transform="matrix(0.72 0 0 0.72 168.48 223.704)" fill="#403a46" width="37.3" height="33.5"/>
  <rect id="XMLID_56_" transform="matrix(0.72 0 0 0.72 168.48 223.704)" fill="none" stroke="#372f3c" stroke-width="4" stroke-linecap="round" stroke-linejoin="round" width="37.3" height="33.5"/>
  <path id="XMLID_19_" transform="matrix(0.72 0 0 0.72 187.03580551055 56.0880000000001)" fill="#fcaf43" d="M207.528 289L30.028 289C12.028 289 -1.97195 273.4 0.228048 255.4L31.728 0L237.728 0L237.728 259.2C237.728 275.7 224.128 289 207.528 289Z"/>
  <path id="XMLID_106_" transform="matrix(0.72 0 0 0.72 187.056 242.568)" fill="#fa932a" d="M7.3 8.5L0 8.5L0 0L15.8 0L15.8 0C15.8 4.7 12 8.5 7.3 8.5Z"/>
  <path id="XMLID_50_" transform="matrix(0.72 0 0 0.72 200.370824614319 67.968)" fill="#fa932a" d="M207.107 12.1L207.107 238.2C207.107 251.6 196.207 262.5 182.807 262.5L8.70719 262.5C3.80719 262.5 -0.192812 266.6 0.00718804 271.5L0.00718804 271.5C2.40719 272.1 8.90719 272.5 11.5072 272.5L189.007 272.5C205.607 272.5 219.207 258.9 219.207 242.3L219.207 0C212.507 0 207.107 5.4 207.107 12.1Z"/>
  <path id="XMLID_162_" transform="matrix(0.72 0 0 0.72 342.648 210.816)" fill="#fa932a" d="M12.9 0L6.6 0C2.9 0 0 3 0 6.6L0 49C0 53.8 3.9 57.6 8.6 57.6L12.9 57.6Z"/>
  <path id="XMLID_31_" transform="matrix(0.72 0 0 0.72 190.296 65.4480000000001)" fill="#3ba2dc" d="M164.4 0L25.6 0L0 208L164.4 208C190.9 208 212.2 186.7 212.2 160.2L212.2 47.5C212.2 20.9 190.9 0 164.4 0Z"/>
  <path id="XMLID_70_" transform="matrix(0.72 0 0 0.72 267.912 161.496)" opacity="0.63" fill="#36303e" d="M52.9 76L0 76L0 56C0 25.1 25.1 0 56 0L106.3 0L106.3 22.6C106.3 52.1 82.4 76 52.9 76Z"/>
  <path id="XMLID_119_" transform="matrix(0.72 0 0 0.72 318.816 120.816)" opacity="0.63" fill="#36303e" d="M35.6 56.5L0 56.5L0 18.1C0 8.1 8.1 0 18.1 0L35.6 0Z"/>
  <path id="XMLID_163_" transform="matrix(0.72 0 0 0.72 336.6 95.4)" opacity="0.63" fill="#36303e" d="M10.9 35.4L0 35.4L0 6.6C0 2.9 3 0 6.6 0L10.8 0L10.8 35.4Z"/>
  <path id="XMLID_164_" transform="matrix(0.72 0 0 0.72 190.296 169.704)" fill="#385a78" d="M7.8 0L0 63.2L66.6 63.2Z"/>
  <path id="XMLID_116_" transform="matrix(0.72 0 0 0.72 231.12 164.016)" fill="none" stroke="#385a78" stroke-width="6" stroke-linecap="round" stroke-linejoin="round" d="M23.5 0L0 25.4"/>
  <path id="XMLID_112_" transform="matrix(0.72 0 0 0.72 235.728 151.2)" fill="none" stroke="#385a78" stroke-width="6" stroke-linecap="round" stroke-linejoin="round" d="M34.2 35.6L0 0"/>
  <path id="XMLID_71_" transform="matrix(0.72 0 0 0.72 213.408 176.4)" fill="#385a78" d="M11.3 31.9L0 19.5L19.5 0L31.4 11.9Z"/>
  <path id="XMLID_81_" transform="matrix(0.72 0 0 0.72 190.296 65.4480000000001)" opacity="0.76" fill="#3ba2dc" d="M164.4 0L25.6 0L0 208L164.4 208C190.9 208 212.2 186.7 212.2 160.2L212.2 47.5C212.2 20.9 190.9 0 164.4 0Z"/>
  <path id="XMLID_183_" transform="matrix(0.72 0 0 0.72 235.656 65.4480000000001)" opacity="0.35" fill="#ffffff" d="M69.5 0L0 0L148.6 167.6C149 165.2 149.2 162.7 149.2 160.2L149.2 89.9Z"/>
  <path id="XMLID_179_" transform="matrix(0.72 0 0 0.72 208.944 65.4480000000001)" opacity="0.35" fill="#ffffff" d="M15.7 0L0 0L172.2 194.1C175 191.3 177.5 188.1 179.6 184.7Z"/>
  <path id="XMLID_51_" transform="matrix(0.72 0 0 0.72 187.056 56.0880000000001)" opacity="0.35" fill="#fde3be" d="M31.7 5.68434e-14L0.2 255.4C0.1 256.4 0 257.4 0 258.5L0 258.5C6.7 258.5 12.3 253.5 13.1 246.9L42.5 8.3L223.6 8.3C228.2 8.3 231.9 4.6 231.9 0Z"/>
  <path id="XMLID_232_" transform="matrix(0.72 0 0 0.72 202.824 245.664)" opacity="0.14" fill="#fde3be" d="M0 0"/>
  <path id="XMLID_118_" transform="matrix(0.72 0 0 0.72 203.832 65.4480000000001)" opacity="0.08" fill="#ffffff" d="M145.6 0L6.8 0L0 55.5L8.5 55.5L37.9 55.5L147.2 55.5C169.3 55.5 187.8 70.1 193.4 90.4L193.4 47.5C193.4 20.9 172.1 0 145.6 0Z"/>
  <path id="XMLID_32_" transform="matrix(0.72 0 0 0.72 190.296 65.4480000000001)" fill="none" stroke="#36303e" stroke-width="4" stroke-linecap="round" stroke-linejoin="round" d="M164.4 0L25.6 0L0 208L164.4 208C190.9 208 212.2 186.7 212.2 160.2L212.2 47.5C212.2 20.9 190.9 0 164.4 0Z"/>
  <path id="XMLID_29_" transform="matrix(0.72 0 0 0.72 187.03580551055 56.0880000000001)" fill="none" stroke="#36303e" stroke-width="4" stroke-linecap="round" stroke-linejoin="round" d="M207.528 289L30.028 289C12.028 289 -1.97195 273.4 0.228048 255.4L31.728 0L237.728 0L237.728 259.2C237.728 275.7 224.128 289 207.528 289Z"/>
  <path id="XMLID_15_" transform="matrix(0.72 0 0 0.72 0 86.616)" fill="#67646d" d="M223 0L223 223L0 223L0 223C0 232.4 7.6 240 17 240L224 240L224 240L240 240L240 240L240 224L240 0Z"/>
  <path id="XMLID_7_" transform="matrix(0.72 0 0 0.72 4.82400000000001 247.824)" opacity="0.13" fill="#ededed" d="M213.1 6.2L3.1 6.2C1.4 6.2 0 4.8 0 3.1L0 3.1C0 1.4 1.4 0 3.1 0L213.2 0C214.9 0 216.3 1.4 216.3 3.1L216.3 3.1C216.3 4.8 214.9 6.2 213.1 6.2Z"/>
  <path id="XMLID_5_" transform="matrix(0.72 0 0 0.72 160.488 91.152)" opacity="0.13" fill="#ededed" d="M3.8 218.8L3.8 218.8C1.7 218.8 0 217.1 0 215L0 3.8C0 1.7 1.7 0 3.8 0L3.8 0C5.9 0 7.6 1.7 7.6 3.8L7.6 215C7.6 217.1 5.9 218.8 3.8 218.8Z"/>
  <path id="XMLID_12_" transform="matrix(0.72 0 0 0.72 0 86.544)" fill="none" stroke="#372f3c" stroke-width="4" stroke-linecap="round" stroke-linejoin="round" d="M223 6L223 223L0 223L0 223C0 232.4 7.6 240 17 240L224 240L224 240L240 240L240 240L240 224L240 6C240 2.7 237.3 0 234 0L228.9 0C225.6 0.1 223 2.7 223 6Z"/>
  <path id="XMLID_79_" transform="matrix(0.72 0 0 0.72 202.392 56.0880000000001)" fill="#403a46" d="M25.9 15L12.8 15C14 8.7 17.7 3.3 22.9 0L10.4 0C4.1 4.1 0 11.2 0 19.3C0 19.7 0 20.1 0 20.5C0 20.7 0 20.9 0 21.1L0 52.1C0 55.4 2.7 58.1 6 58.1L26 58.1C29.3 58.1 32 55.4 32 52.1L32 21.1C31.9 17.7 29.2 15 25.9 15Z"/>
  <path id="XMLID_154_" transform="matrix(0.72 0 0 0.72 202.464 70.272)" opacity="0.74" fill="#36303e" d="M25.5 4.9L25.5 29.8C25.5 31.9 23.8 33.5 21.8 33.5L0 33.5C0.6 36.2 3 38.3 5.9 38.3L25.9 38.3C29.2 38.3 31.9 35.6 31.9 32.3L31.9 1.3C31.9 0.9 31.8 0.4 31.8 0L30.5 0C27.7 5.68434e-14 25.5 2.2 25.5 4.9Z"/>
  <path id="XMLID_52_" transform="matrix(0.72 0 0 0.72 203.04 65.3760000000001)" opacity="0.13" fill="#ededed" d="M3.3 39.7L0 39.7L0 3.3C0 1.5 1.5 0 3.3 0L3.3 0C5.1 0 6.6 1.5 6.6 3.3L6.6 36.4C6.5 38.2 5.1 39.7 3.3 39.7Z"/>
  <path id="XMLID_83_" transform="matrix(0.72 0 0 0.72 202.392 56.0880000000001)" fill="none" stroke="#36303e" stroke-width="4" stroke-linecap="round" stroke-linejoin="round" d="M25.9 15L12.8 15C14 8.7 17.7 3.3 22.9 0L10.4 0C4.1 4.1 0 11.2 0 19.3C0 19.7 0 20.1 0 20.5C0 20.7 0 20.9 0 21.1L0 52.1C0 55.4 2.7 58.1 6 58.1L26 58.1C29.3 58.1 32 55.4 32 52.1L32 21.1C31.9 17.7 29.2 15 25.9 15Z"/>
  <g id="XMLID_21_" transform="matrix(0.72 0 0 0.72 -159.12 -199.584)" fill="none">
   <path id="XMLID_158_" transform="translate(502.3, 619.642)" fill="#403a46" d="M84 41.258C84 43.658 81.8 45.858 81.4 48.158C81 50.558 82.3 53.358 81.5 55.558C80.7 57.858 77.9 59.158 76.7 61.158C75.5 63.258 75.8 66.358 74.2 68.158C72.7 69.958 69.6 70.258 67.7 71.758C65.9 73.258 65.1 76.258 63 77.458C60.9 78.658 57.9 77.858 55.7 78.658C53.5 79.458 51.7 82.058 49.3 82.458C47 82.858 44.4 81.058 42 81.058C39.6 81.058 37 82.858 34.7 82.458C32.3 82.058 30.5 79.458 28.3 78.658C26 77.858 23 78.658 21 77.458C18.9 76.258 18.1 73.258 16.3 71.758C14.5 70.258 11.4 69.958 9.8 68.158C8.3 66.358 8.5 63.258 7.3 61.158C6.1 59.058 3.3 57.758 2.5 55.558C1.7 53.358 3 50.558 2.6 48.158C2.2 45.858 0 43.658 0 41.258C0 38.858 2.2 36.658 2.6 34.358C3 31.958 1.7 29.158 2.5 26.958C3.3 24.658 6.1 23.358 7.3 21.358C8.5 19.258 8.2 16.158 9.8 14.358C11.3 12.558 14.4 12.258 16.3 10.758C18.1 9.258 18.9 6.258 21 5.058C23.1 3.858 26.1 4.658 28.3 3.858C30.5 3.058 32.3 0.458 34.7 0.058C37 -0.342 39.6 1.458 42 1.458C44.4 1.458 47 -0.342 49.3 0.058C51.7 0.458 53.5 3.058 55.7 3.858C58 4.658 61 3.858 63 5.058C65.1 6.258 65.9 9.258 67.7 10.758C69.5 12.258 72.6 12.558 74.2 14.358C75.7 16.158 75.5 19.258 76.7 21.358C77.9 23.458 80.7 24.758 81.5 26.958C82.3 29.158 81 31.958 81.4 34.358C81.8 36.658 84 38.858 84 41.258Z"/>
  </g>
  <path id="XMLID_75_" transform="matrix(0.72 0 0 0.72 275.976 2.01600000000013)" opacity="0.4" fill="#fde3be" d="M4.9 19.3L4.9 19.3C2.2 19.3 0 17.1 0 14.4L0 4.9C0 2.2 2.2 0 4.9 0L4.9 0C7.6 0 9.8 2.2 9.8 4.9L9.8 14.4C9.8 17.1 7.6 19.3 4.9 19.3Z"/>
  <g id="XMLID_57_" transform="matrix(0.72 0 0 0.72 -159.12 -199.584)" fill="none">
   <path id="XMLID_68_" transform="translate(502.485274901841, 618.885962562267)" fill="none" stroke="#36303e" stroke-width="6" stroke-linecap="round" stroke-linejoin="round" d="M82.4147 52.514C81.8147 54.914 79.1147 56.414 78.1147 58.614C77.1147 60.814 77.7147 63.914 76.3147 65.814C74.9147 67.814 71.9147 68.414 70.2147 70.014C68.5147 71.714 68.0147 74.814 66.1147 76.214C64.2147 77.614 61.1147 77.114 58.9147 78.114C56.8147 79.114 55.2147 81.814 52.9147 82.514C50.6147 83.114 47.9147 81.614 45.5147 81.814C43.1147 82.014 40.8147 84.014 38.4147 83.814C36.1147 83.614 34.0147 81.314 31.7147 80.614C29.4147 79.914 26.4147 81.114 24.3147 80.114C22.1147 79.114 21.0147 76.214 19.1147 74.814C17.1147 73.414 14.0147 73.414 12.3147 71.814C10.6147 70.114 10.6147 67.014 9.21473 65.114C7.81473 63.214 4.91473 62.114 3.91473 60.014C2.91473 57.914 3.91473 54.914 3.31473 52.614C2.71473 50.314 0.314725 48.314 0.0147251 45.914C-0.185275 43.514 1.71473 41.114 1.91473 38.714C2.11473 36.414 0.514725 33.714 1.11473 31.314C1.71473 28.914 4.41473 27.414 5.41473 25.214C6.41473 23.014 5.81473 19.914 7.21473 18.014C8.61473 16.014 11.6147 15.414 13.3147 13.814C15.0147 12.114 15.5147 9.01404 17.4147 7.61404C19.3147 6.21404 22.4147 6.71404 24.6147 5.71404C26.7147 4.71404 28.3147 2.01404 30.6147 1.31404C32.9147 0.714037 35.6147 2.21404 38.0147 2.01404C40.4147 1.81404 42.7147 -0.185963 45.1147 0.0140374C47.4147 0.214037 49.5147 2.51404 51.8147 3.21404C54.1147 3.91404 57.1147 2.71404 59.2147 3.71404C61.4147 4.71404 62.5147 7.61404 64.4147 9.01404C66.4147 10.414 69.5147 10.414 71.2147 12.014C72.9147 13.714 72.9147 16.814 74.3147 18.714C75.7147 20.614 78.6147 21.714 79.6147 23.814C80.6147 25.914 79.6147 28.914 80.2147 31.214C80.8147 33.514 83.2147 35.514 83.5147 37.914C83.7147 40.314 81.8147 42.714 81.6147 45.114C81.5147 47.514 83.0147 50.214 82.4147 52.514Z"/>
  </g>
  <circle id="XMLID_27_" transform="matrix(0.72 0 0 0.72 214.776 258.264)" r="25" cx="25" cy="25" fill="#9b989f"/>
  <path id="XMLID_150_" transform="matrix(0.72 0 0 0.72 214.776 258.264)" fill="#8f8d91" d="M25 8.2C37.4 8.2 47.7 17.3 49.7 29.1C49.9 27.8 50 26.4 50 25C50 11.2 38.8 0 25 0C11.2 0 0 11.2 0 25C0 26.4 0.1 27.8 0.3 29.1C2.2 17.2 12.5 8.2 25 8.2Z"/>
  <circle id="XMLID_59_" transform="matrix(0.72 0 0 0.72 225.144 268.632)" r="10.6" cx="10.6" cy="10.6" fill="#fcaf43"/>
  <circle id="XMLID_20_" transform="matrix(0.72 0 0 0.72 225.144 268.632)" r="10.6" cx="10.6" cy="10.6" fill="none" stroke="#36303e" stroke-width="4" stroke-linecap="round" stroke-linejoin="round"/>
  <circle id="XMLID_36_" transform="matrix(0.72 0 0 0.72 214.776 258.264)" r="25" cx="25" cy="25" fill="none" stroke="#36303e" stroke-width="4" stroke-linecap="round" stroke-linejoin="round"/>
  <g id="XMLID_127_" transform="matrix(0.72 0 0 0.72 -159.12 -199.584)" fill="none">
   <path id="XMLID_139_" transform="translate(609.9, 619.642)" fill="#403a46" d="M84 41.258C84 43.658 81.8 45.858 81.4 48.158C81 50.558 82.3 53.358 81.5 55.558C80.7 57.858 77.9 59.158 76.7 61.158C75.5 63.258 75.8 66.358 74.2 68.158C72.7 69.958 69.6 70.258 67.7 71.758C65.9 73.258 65.1 76.258 63 77.458C60.9 78.658 57.9 77.858 55.7 78.658C53.5 79.458 51.7 82.058 49.3 82.458C47 82.858 44.4 81.058 42 81.058C39.6 81.058 37 82.858 34.7 82.458C32.3 82.058 30.5 79.458 28.3 78.658C26 77.858 23 78.658 21 77.458C18.9 76.258 18.1 73.258 16.3 71.758C14.5 70.258 11.4 69.958 9.8 68.158C8.3 66.358 8.5 63.258 7.3 61.158C6.1 59.058 3.3 57.758 2.5 55.558C1.7 53.358 3 50.558 2.6 48.158C2.2 45.858 0 43.658 0 41.258C0 38.858 2.2 36.658 2.6 34.358C3 31.958 1.7 29.158 2.5 26.958C3.3 24.658 6.1 23.358 7.3 21.358C8.5 19.258 8.2 16.158 9.8 14.358C11.3 12.558 14.4 12.258 16.3 10.758C18.1 9.258 18.9 6.258 21 5.058C23.1 3.858 26.1 4.658 28.3 3.858C30.5 3.058 32.3 0.458 34.7 0.058C37 -0.342 39.6 1.458 42 1.458C44.4 1.458 47 -0.342 49.3 0.058C51.7 0.458 53.5 3.058 55.7 3.858C58 4.658 61 3.858 63 5.058C65.1 6.258 65.9 9.258 67.7 10.758C69.5 12.258 72.6 12.558 74.2 14.358C75.7 16.158 75.5 19.258 76.7 21.358C77.9 23.458 80.7 24.758 81.5 26.958C82.3 29.158 81 31.958 81.4 34.358C81.8 36.658 84 38.858 84 41.258Z"/>
  </g>
  <g id="XMLID_123_" transform="matrix(0.72 0 0 0.72 -159.12 -199.584)" fill="none">
   <path id="XMLID_125_" transform="translate(610.085274901841, 618.885962562267)" fill="none" stroke="#36303e" stroke-width="6" stroke-linecap="round" stroke-linejoin="round" d="M82.4147 52.514C81.8147 54.914 79.1147 56.414 78.1147 58.614C77.1147 60.814 77.7147 63.914 76.3147 65.814C74.9147 67.814 71.9147 68.414 70.2147 70.014C68.5147 71.714 68.0147 74.814 66.1147 76.214C64.2147 77.614 61.1147 77.114 58.9147 78.114C56.8147 79.114 55.2147 81.814 52.9147 82.514C50.6147 83.114 47.9147 81.614 45.5147 81.814C43.1147 82.014 40.8147 84.014 38.4147 83.814C36.1147 83.614 34.0147 81.314 31.7147 80.614C29.3147 80.014 26.4147 81.114 24.3147 80.114C22.1147 79.114 21.0147 76.214 19.1147 74.814C17.1147 73.414 14.0147 73.414 12.3147 71.814C10.6147 70.114 10.6147 67.014 9.21473 65.114C7.81473 63.214 4.91473 62.114 3.91473 60.014C2.91473 57.914 3.91473 54.914 3.31473 52.614C2.71473 50.314 0.314725 48.314 0.0147251 45.914C-0.185275 43.514 1.71473 41.114 1.91473 38.714C2.11473 36.414 0.514725 33.714 1.11473 31.314C1.71473 28.914 4.41473 27.414 5.41473 25.214C6.41473 23.014 5.81473 19.914 7.21473 18.014C8.61473 16.014 11.6147 15.414 13.3147 13.814C15.0147 12.114 15.5147 9.01404 17.4147 7.61404C19.3147 6.21404 22.4147 6.71404 24.6147 5.71404C26.7147 4.71404 28.3147 2.01404 30.6147 1.31404C32.9147 0.714037 35.6147 2.21404 38.0147 2.01404C40.4147 1.81404 42.7147 -0.185963 45.1147 0.0140374C47.4147 0.214037 49.5147 2.51404 51.8147 3.21404C54.2147 3.81404 57.1147 2.71404 59.2147 3.71404C61.4147 4.71404 62.5147 7.61404 64.4147 9.01404C66.4147 10.414 69.5147 10.414 71.2147 12.014C72.9147 13.714 72.9147 16.814 74.3147 18.714C75.7147 20.614 78.6147 21.714 79.6147 23.814C80.6147 25.914 79.6147 28.914 80.2147 31.214C80.8147 33.514 83.2147 35.514 83.5147 37.914C83.7147 40.314 81.8147 42.714 81.6147 45.114C81.5147 47.514 83.1147 50.214 82.4147 52.514Z"/>
  </g>
  <circle id="XMLID_108_" transform="matrix(0.72 0 0 0.72 292.248 258.264)" r="25" cx="25" cy="25" fill="#9b989f"/>
  <path id="XMLID_92_" transform="matrix(0.72 0 0 0.72 292.248 258.264)" fill="#8f8d91" d="M25 8.2C37.4 8.2 47.7 17.3 49.7 29.1C49.9 27.8 50 26.4 50 25C50 11.2 38.8 0 25 0C11.2 0 0 11.2 0 25C0 26.4 0.1 27.8 0.3 29.1C2.3 17.2 12.6 8.2 25 8.2Z"/>
  <circle id="XMLID_88_" transform="matrix(0.72 0 0 0.72 302.616 268.632)" r="10.6" cx="10.6" cy="10.6" fill="#fcaf43"/>
  <circle id="XMLID_64_" transform="matrix(0.72 0 0 0.72 302.616 268.632)" r="10.6" cx="10.6" cy="10.6" fill="none" stroke="#36303e" stroke-width="4" stroke-linecap="round" stroke-linejoin="round"/>
  <circle id="XMLID_54_" transform="matrix(0.72 0 0 0.72 292.248 258.264)" r="25" cx="25" cy="25" fill="none" stroke="#36303e" stroke-width="4" stroke-linecap="round" stroke-linejoin="round"/>
  <rect id="XMLID_11_" transform="matrix(0.72 0 0 0.72 276.912 20.88)" fill="#67646d" width="30.4" height="16.8"/>
  <rect id="XMLID_140_" transform="matrix(0.72 0 0 0.72 276.912 28.8000000000001)" opacity="0.75" fill="#403a46" width="30.4" height="5.8"/>
  <rect id="XMLID_30_" transform="matrix(0.72 0 0 0.72 276.912 20.88)" fill="none" stroke="#36303e" stroke-width="4" stroke-linecap="round" stroke-linejoin="round" width="30.4" height="16.8"/>
  <path id="XMLID_63_" transform="matrix(0.72 0 0 0.72 276.912 0)" fill="#fcaf43" d="M30.4 29L0 29L0 9.3C0 4.2 4.2 0 9.3 0L21.1 0C26.2 0 30.4 4.2 30.4 9.3Z"/>
  <path id="XMLID_73_" transform="matrix(0.72 0 0 0.72 277.632 2.66399999999999)" opacity="0.4" fill="#fde3be" d="M5 19.3L0 19.3L0 5C0 2.3 2.2 0 5 0L5 0C7.7 0 10 2.2 10 5L10 14.4C9.9 17.1 7.7 19.3 5 19.3Z"/>
  <path id="XMLID_77_" transform="matrix(0.72 0 0 0.72 276.912 3.88799999999998)" fill="#fa932a" d="M23.5 3.2L23.5 18.4L0 18.4L0 23.6L30.4 23.6L30.4 3.1C30.4 1.4 29.2 0 27.8 0L26.3 0C24.8 5.68434e-14 23.5 1.5 23.5 3.2Z"/>
  <path id="XMLID_69_" transform="matrix(0.72 0 0 0.72 276.912 0)" fill="none" stroke="#36303e" stroke-width="4" stroke-linecap="round" stroke-linejoin="round" d="M30.4 29L0 29L0 9.3C0 4.2 4.2 0 9.3 0L21.1 0C26.2 0 30.4 4.2 30.4 9.3Z"/>
  <path id="XMLID_142_" transform="matrix(0.72 0 0 0.72 349.128 217.296)" fill="#c71f2c" d="M12.7 39.6L0 39.6L0 0L12.7 0C16.4 0 19.3 3 19.3 6.6L19.3 33C19.3 36.7 16.3 39.6 12.7 39.6Z"/>
  <path id="XMLID_160_" transform="matrix(0.72 0 0 0.72 350.208 219.384)" opacity="0.27" fill="#fde3be" d="M1.3 30.9L0 30.9L0 2.2C0 1 1 0 2.2 0L2.2 0C3.6 0 4.8 1.1 4.8 2.6L4.8 27.5C4.7 29.4 3.2 30.9 1.3 30.9Z"/>
  <path id="XMLID_173_" transform="matrix(0.72 0 0 0.72 349.128 217.296)" fill="#ad1e2f" d="M13.5 0C13.5 0.2 13.6 0.3 13.6 0.5L13.6 32.4C13.6 34.2 12.2 35.6 10.4 35.6L0 35.6L0 39.6L12.7 39.6C16.4 39.6 19.3 36.6 19.3 33L19.3 6.6C19.3 3.2 16.7 0.4 13.5 0Z"/>
  <path id="XMLID_157_" transform="matrix(0.72 0 0 0.72 349.128 217.296)" fill="none" stroke="#36303e" stroke-width="4" stroke-linecap="round" stroke-linejoin="round" d="M12.7 39.6L2.4 39.6C1.1 39.6 0 38.5 0 37.2L0 2.4C0 1.1 1.1 0 2.4 0L12.7 0C16.4 0 19.3 3 19.3 6.6L19.3 33C19.3 36.7 16.3 39.6 12.7 39.6Z"/>
  <path id="XMLID_103_" transform="matrix(0.72 0 0 0.72 0 242.208)" fill="#36303e" d="M223 6.9L0 6.9L0 6.9C0 3.1 3.1 0 6.9 0L223 0Z"/>
  <path id="XMLID_89_" transform="matrix(0.72 0 0 0.72 0 242.208)" fill="none" stroke="#372f3c" stroke-width="4" stroke-linecap="round" stroke-linejoin="round" d="M223 6.9L0 6.9L0 6.9C0 3.1 3.1 0 6.9 0L223 0Z"/>
  <path id="XMLID_224_" transform="matrix(0.72 0 0 0.72 249.48 223.704)" fill="none" stroke="#fa932a" stroke-width="5" stroke-linecap="round" stroke-linejoin="round" d="M0 0L64.3 0"/>
  <path id="XMLID_226_" transform="matrix(0.72 0 0 0.72 249.912 231.552)" fill="none" stroke="#fa932a" stroke-width="5" stroke-linecap="round" stroke-linejoin="round" d="M0 0L14.1 0"/>
  <path id="XMLID_227_" transform="matrix(0.72 0 0 0.72 249.912 238.68)" fill="none" stroke="#fa932a" stroke-width="5" stroke-linecap="round" stroke-linejoin="round" d="M0 0L26.6 0"/>
  <path id="XMLID_228_" transform="matrix(0.72 0 0 0.72 183.168 225.936)" fill="#c71f2c" d="M22.5 22.6L6.8 22.6C3.1 22.6 0 19.6 0 15.8L0 6.8C0 3.1 3 0 6.8 0L22.5 0Z"/>
  <path id="XMLID_231_" transform="matrix(0.72 0 0 0.72 184.464 228.168)" opacity="0.27" fill="#fde3be" d="M0 16.4L0 16.4L0 0L0 0C2.1 0 3.9 1.7 3.9 3.9L3.9 12.5C3.9 14.7 2.1 16.4 0 16.4Z"/>
  <rect id="XMLID_229_" transform="matrix(0.72 0 0 0.72 191.232 226.008)" fill="#ffb808" width="11.2" height="22.5"/>
  <path id="XMLID_230_" transform="matrix(0.72 0 0 0.72 191.304 226.08)" fill="none" stroke="#36303e" stroke-width="4" stroke-linecap="round" stroke-linejoin="round" d="M5.6 22.4L5.6 22.4C2.5 22.4 0 19.9 0 16.8L0 5.6C0 2.5 2.5 0 5.6 0L5.6 0C8.7 0 11.2 2.5 11.2 5.6L11.2 16.8C11.2 19.8 8.7 22.4 5.6 22.4Z"/>
  <path id="XMLID_223_" transform="matrix(0.72 0 0 0.72 183.168 225.936)" fill="none" stroke="#36303e" stroke-width="4" stroke-linecap="round" stroke-linejoin="round" d="M17.2 22.6L6.8 22.6C3.1 22.6 0 19.6 0 15.8L0 6.8C0 3.1 3 0 6.8 0L17.2 0C20.1 0 22.5 2.4 22.5 5.3L22.5 17.2C22.5 20.2 20.1 22.6 17.2 22.6Z"/>
  <path id="XMLID_136_" transform="matrix(0.72 0 0 0.72 18.216 120.24)" fill="#47a942" d="M155.4 172.3L16.9 172.3C7.6 172.3 0 164.7 0 155.4L0 16.9C0 7.6 7.6 0 16.9 0L155.4 0C164.7 0 172.3 7.6 172.3 16.9L172.3 155.4C172.3 164.7 164.7 172.3 155.4 172.3Z"/>
  <path id="XMLID_266_" transform="matrix(0.72 0 0 0.72 18.216 120.312)" fill="#81c347" d="M6.5 143.4L6.5 31C6.5 21.7 14.1 14.1 23.4 14.1L148.9 14.1C158.2 14.1 165.8 21.7 165.8 31L165.8 143.4C165.8 147 168.7 149.9 172.3 149.9L172.3 149.9L172.3 16.9C172.3 7.6 164.7 0 155.4 0L16.9 0C7.6 0 0 7.6 0 16.9L0 149.9L0 149.9C3.6 149.8 6.5 146.9 6.5 143.4Z"/>
  <circle id="XMLID_243_" transform="matrix(0.72 0 0 0.72 48.456 150.48)" r="44.2" cx="44.2" cy="44.2" fill="#5cb342"/>
  <path id="XMLID_268_" transform="matrix(0.72 0 0 0.72 20.2319999999999 120.24)" fill="#cadb2a" d="M0 7.6L166.7 7.6C163.7 3 158.5 0 152.6 0L14.1 0C8.2 0 3 3.1 0 7.6Z"/>
  <path id="XMLID_248_" transform="matrix(0.72 0 0 0.72 60.192 118.8)" fill="#26863f" stroke="#26863f" stroke-width="5" stroke-linecap="butt" stroke-linejoin="miter" stroke-miterlimit="10" d="M0 70.5L0 6.2C0 2.8 2.8 0 6.2 0L41.8 0C45.2 0 48 2.8 48 6.2L48 45.6C48 47.6 47 49.5 45.4 50.7L9.8 75.6C5.6 78.4 0 75.5 0 70.5Z"/>
  <path id="XMLID_277_" transform="matrix(0.72 0 0 0.72 18.216 223.488)" fill="#26863f" d="M155.4 16.9L16.9 16.9C7.6 16.9 0 9.3 0 0L0 12C0 21.3 7.6 28.9 16.9 28.9L155.4 28.9C164.7 28.9 172.3 21.3 172.3 12L172.3 0C172.3 9.3 164.7 16.9 155.4 16.9Z"/>
  <path id="XMLID_234_" transform="matrix(0.72 0 0 0.72 18.216 120.24)" fill="none" stroke="#36303e" stroke-width="4" stroke-linecap="round" stroke-linejoin="round" d="M155.4 172.3L16.9 172.3C7.6 172.3 0 164.7 0 155.4L0 16.9C0 7.6 7.6 0 16.9 0L155.4 0C164.7 0 172.3 7.6 172.3 16.9L172.3 155.4C172.3 164.7 164.7 172.3 155.4 172.3Z"/>
  <path id="XMLID_244_" transform="matrix(0.72 0 0 0.72 58.752 116.712)" fill="#f78f1e" d="M0 75.6L0 3.5C0 1.6 1.6 0 3.5 0L44.5 0C46.4 0 48 1.6 48 3.5L48 47C48 48.1 47.4 49.2 46.5 49.9L5.5 78.5C3.2 80 0 78.4 0 75.6Z"/>
  <path id="XMLID_260_" transform="matrix(0.72 0 0 0.72 58.752 116.64)" fill="#fdb813" d="M44.5 0L3.5 0C1.6 0 0 1.6 0 3.5L0 28.8L48 28.8L48 3.5C48 1.6 46.4 0 44.5 0Z"/>
  <path id="XMLID_270_" transform="matrix(0.72 0 0 0.72 58.752 116.64)" fill="#fef200" d="M44.5 0L3.5 0C1.6 0 0 1.6 0 3.5L0 8.8L48 8.8L48 3.5C48 1.6 46.4 0 44.5 0Z"/>
  <path id="XMLID_245_" transform="matrix(0.72 0 0 0.72 58.752 116.712)" fill="none" stroke="#36303e" stroke-width="4" stroke-linecap="round" stroke-linejoin="round" d="M0 75.6L0 3.5C0 1.6 1.6 0 3.5 0L44.5 0C46.4 0 48 1.6 48 3.5L48 47C48 48.1 47.4 49.2 46.5 49.9L5.5 78.5C3.2 80 0 78.4 0 75.6Z"/>
  <path id="XMLID_233_" transform="matrix(0.72 0 0 0.72 28.944 139.248)" fill="#81c347" d="M3.1 100.4L3.1 100.4C1.4 100.4 0 99 0 97.3L0 3.1C0 1.4 1.4 0 3.1 0L3.1 0C4.8 0 6.2 1.4 6.2 3.1L6.2 97.3C6.2 99 4.8 100.4 3.1 100.4Z"/>
  <path id="XMLID_9_" transform="matrix(0.72 0 0 0.72 28.944 215.208)" fill="#81c347" d="M3.1 8.9L3.1 8.9C1.4 8.9 0 7.5 0 5.8L0 3.1C0 1.4 1.4 0 3.1 0L3.1 0C4.8 0 6.2 1.4 6.2 3.1L6.2 5.8C6.2 7.5 4.8 8.9 3.1 8.9Z"/>
  <path id="XMLID_72_" transform="matrix(0.72 0 0 0.72 126.864 137.448)" opacity="0.28" fill="#26863f" d="M3.1 121.5L3.1 121.5C1.4 121.5 0 120.1 0 118.4L0 3.1C0 1.4 1.4 0 3.1 0L3.1 0C4.8 0 6.2 1.4 6.2 3.1L6.2 118.3C6.2 120.1 4.8 121.5 3.1 121.5Z"/>
  <path id="XMLID_4_" transform="matrix(0.72 0 0 0.72 209.88 70.2720000000001)" fill="#4f4f59" d="M11 4L2 4C0.9 4 0 3.1 0 2L0 2C0 0.9 0.9 0 2 0L11 0C12.1 0 13 0.9 13 2L13 2C13 3.1 12.1 4 11 4Z"/>
 </g>
</svg>
